<?xml version="1.0" encoding="utf-8"?>
<!-- Generator: Adobe Illustrator 28.3.0, SVG Export Plug-In . SVG Version: 6.00 Build 0)  -->
<svg version="1.1" id="Capa_1" xmlns="http://www.w3.org/2000/svg" xmlns:xlink="http://www.w3.org/1999/xlink" x="0px" y="0px"
	 viewBox="0 0 792 612" style="enable-background:new 0 0 792 612;" xml:space="preserve">
<g>
	<path d="M253.88,447.9c0-2.01,0-3.83,0-5.65c0-90.47,0-180.94,0-271.42c0-6.61,0.01-6.45-6.49-6.8c-2.98-0.16-6.81-0.12-8.66-1.87
		c-2.38-2.26-4.36-6.25-4.26-9.42c0.08-2.61,2.98-5.87,5.5-7.45c2.34-1.46,5.83-1.46,8.81-1.46c98.1-0.07,196.2-0.06,294.3-0.01
		c2.83,0,5.76,0.32,8.45,1.12c4.66,1.38,6.84,4.96,6.35,9.71c-0.47,4.55-2.78,8-7.64,8.87c-2.31,0.41-4.74,0.73-7.05,0.51
		c-4.42-0.42-5.76,1.53-5.33,5.61c0.23,2.17,0.04,4.39,0.04,6.59c0,88.95,0.02,177.9-0.1,266.85c-0.01,4.26,1.1,5.73,5.39,5.45
		c2.79-0.18,5.76,0.29,8.44,1.14c4.6,1.45,6.96,5.7,6.27,10.29c-0.77,5.14-3.94,7.93-9.32,8.18c-0.51,0.02-1.01,0.02-1.52,0.02
		c-100.64,0-201.27,0-301.91,0.01c-3.85,0-7.39-0.3-9.58-4.22c-3.41-6.11-1.2-12.66,5.53-14.52
		C244.94,448.41,249.07,448.45,253.88,447.9z M273.78,306.64c0,44.99,0,89.98,0,134.97c0,6.84,0.02,6.84,6.62,6.84
		c26.39,0,52.78-0.15,79.17,0.13c5.39,0.06,6.61-1.88,6.48-6.73c-0.24-8.79-0.58-17.65,0.31-26.36c0.53-5.15,2.43-10.68,5.3-14.97
		c7.74-11.57,20.52-15.21,34.47-10.9c11.39,3.52,19.6,14.88,19.86,27.83c0.17,8.45,0.26,16.92-0.02,25.37
		c-0.15,4.52,1.49,5.74,5.88,5.71c26.56-0.18,53.12-0.09,79.67-0.09c6.69,0,6.72,0,6.72-6.81c0.01-90.15,0.01-180.3,0.01-270.44
		c0-7.07-0.03-7.08-7.04-7.08c-76.8,0-153.6,0-230.4,0c-7,0-7.01,0.01-7.02,7.05C273.78,216.33,273.78,261.48,273.78,306.64z
		 M406.1,448.46c0-10.52,0.17-20.28-0.06-30.03c-0.15-6.4-4.36-10.57-9.97-10.65c-5.55-0.07-10.1,4.11-10.33,10.39
		c-0.34,8.94-0.26,17.91-0.03,26.86c0.03,1.17,1.92,3.2,3.04,3.27C394.28,448.64,399.86,448.46,406.1,448.46z"/>
	<path d="M366,295.9c0-3.21-0.11-6.43,0.02-9.64c0.47-12.01,5.4-18.58,17.28-19.92c9.12-1.03,18.59-0.69,27.71,0.51
		c9.21,1.21,14.37,7.88,14.83,17.29c0.39,7.93,0.38,15.9,0,23.83c-0.43,9.1-7.42,16.95-16.44,17.77
		c-8.54,0.77-17.24,0.88-25.79,0.21c-10.41-0.81-16.92-8.34-17.49-18.89c-0.2-3.71-0.03-7.43-0.03-11.15
		C366.06,295.9,366.03,295.9,366,295.9z M395.87,306.17c10.32,0,10.32,0,10.32-9.7c0-10.75,0-10.79-10.63-10.73
		c-10.85,0.06-9.97-1.45-9.97,10.02C385.59,306.17,385.59,306.17,395.87,306.17z"/>
	<path d="M467.18,265.67c2.36-0.01,4.73-0.07,7.09,0c11.9,0.38,21.9,4.17,22.74,20.09c0.44,8.2-0.27,16.47-0.71,24.7
		c-0.4,7.48-9.14,15.33-16.31,15.51c-6.91,0.17-13.83,0.58-20.73,0.41c-13.73-0.35-20.74-6.22-22.25-19.72
		c-0.85-7.63-0.65-15.55,0.37-23.17c1.6-11.96,8.03-17.15,20.18-17.78C460.76,265.54,463.98,265.68,467.18,265.67z M467.06,306.17
		c11.23-0.21,10.29,1.99,10.29-9.55c0-12.63,1.01-10.8-10.68-10.87c-10.81-0.06-10.2-1.08-10.18,9.98
		C456.52,308,455.57,306.01,467.06,306.17z"/>
	<path d="M324.76,326.79c-4.71-0.34-9.46-0.42-14.13-1.09c-7.12-1.01-14.26-7.5-14.9-14.63c-0.81-9.03-0.85-18.18-0.5-27.25
		c0.43-11.18,7.67-16.72,17.43-17.66c8.19-0.79,16.62-0.87,24.77,0.11c10.96,1.33,15.65,5.82,16.96,16.83
		c1.05,8.79,0.9,17.91-0.19,26.7c-1.22,9.88-7.88,15.32-17.76,16.31c-3.85,0.38-7.77,0.06-11.65,0.06
		C324.77,326.38,324.76,326.58,324.76,326.79z M324.74,306.17c11.16-0.19,10.78,2,10.78-9.81c0-12.02,0.53-10.61-10.64-10.62
		c-11.41,0-10.36-1.25-10.33,10.24C314.58,307.85,313.19,306.02,324.74,306.17z"/>
	<path d="M324.96,244.93c-4.05,0-8.2,0.57-12.13-0.11c-11.93-2.06-17.45-8.01-18.06-20.73c-0.41-8.53,0.45-17.17,1.46-25.68
		c0.79-6.66,6.69-12.45,13.26-12.79c10.24-0.53,20.56-0.69,30.77,0.06c6.66,0.49,11.61,5.04,13.24,11.66
		c2.82,11.45,2.67,23.11,0.32,34.65c-1.41,6.9-10.12,12.71-19.22,13.17c-3.2,0.16-6.42,0.03-9.63,0.03
		C324.96,245.11,324.96,245.02,324.96,244.93z M324.99,204.78c-11.18,0.15-10.52-1.89-10.44,9.5c0.08,12.45-1.65,10.89,11.1,10.95
		c10.42,0.04,9.86,1.04,9.87-9.81C335.53,202.83,335.93,204.92,324.99,204.78z"/>
	<path d="M466.72,244.97c-3.88,0-7.86,0.53-11.64-0.1c-12.02-1.99-17.95-8.45-18.33-21.09c-0.26-8.54,0.63-17.16,1.63-25.67
		c0.72-6.15,6.86-12.01,13.01-12.53c8.22-0.69,16.55-1.33,24.75-0.79c14.23,0.94,19.25,5.67,20.8,19.82
		c0.84,7.65,0.59,15.58-0.44,23.22c-1.47,10.97-8.92,16.87-20.15,17.35c-3.21,0.14-6.42,0.02-9.64,0.02
		C466.72,245.12,466.72,245.04,466.72,244.97z M467,204.78c-10.82,0.13-10.59-1.83-10.5,9.56c0.09,12.03-1.46,10.91,10.74,10.88
		c11.01-0.03,10.11,1.55,10.11-9.87C477.35,202.61,478.34,205,467,204.78z"/>
	<path d="M365.4,215.78c0.64-6.01,0.8-12.12,2.03-18.01c1.5-7.19,6.76-11.56,13.82-12.18c9.01-0.79,18.19-1.04,27.2-0.31
		c13.93,1.13,16.74,10.2,17.47,19.67c0.47,6.04,0.16,12.15,0.11,18.23c-0.11,12.43-4.86,19.43-17.11,21.23
		c-9.01,1.32-18.58,0.97-27.6-0.48c-10.32-1.66-14.73-8.09-15.25-18.46c-0.16-3.2-0.02-6.41-0.02-9.62
		C365.83,215.82,365.61,215.8,365.4,215.78z M406.19,214.66c0-9.88,0-9.88-9.69-9.88c-10.91,0-10.92,0-10.91,10.81
		c0.01,10.81-0.99,9.61,9.83,9.65C406.19,225.28,406.19,225.25,406.19,214.66z"/>
	<path d="M396.1,346.58c20.44,0.53,37.57,7.99,51.64,22.66c4.15,4.33,4.46,10.34,0.59,14.59c-3.97,4.36-9.61,4.7-14.33-0.05
		c-9.73-9.8-21.24-15.4-35.01-16.16c-13.73-0.76-25.99,3.12-36.55,12.05c-1.55,1.31-2.9,2.85-4.43,4.17
		c-4.93,4.26-9.98,4.36-14.04,0.34c-3.97-3.94-3.93-9.99,0.43-14.56c8.76-9.18,18.66-16.73,31.32-19.58
		C382.43,348.54,389.3,347.71,396.1,346.58z"/>
</g>
</svg>
