<?xml version="1.0" encoding="utf-8"?>
<!-- Generator: Adobe Illustrator 27.8.1, SVG Export Plug-In . SVG Version: 6.00 Build 0)  -->
<svg version="1.1" id="Capa_1" xmlns="http://www.w3.org/2000/svg" xmlns:xlink="http://www.w3.org/1999/xlink" x="0px" y="0px"
	 viewBox="0 0 846 171" style="enable-background:new 0 0 846 171;" xml:space="preserve">
<style type="text/css">
	.st0{fill-rule:evenodd;clip-rule:evenodd;}
	.st1{fill-rule:evenodd;clip-rule:evenodd;fill:#80CBF2;}
	.st2{fill-rule:evenodd;clip-rule:evenodd;fill:#00A3DD;}
	.st3{fill-rule:evenodd;clip-rule:evenodd;fill:#0075B8;}
	.st4{fill-rule:evenodd;clip-rule:evenodd;fill:#AA84B3;}
	.st5{fill-rule:evenodd;clip-rule:evenodd;fill:#743B8C;}
	.st6{fill-rule:evenodd;clip-rule:evenodd;fill:#372C65;}
	.st7{fill-rule:evenodd;clip-rule:evenodd;fill:#EE9ABD;}
	.st8{fill-rule:evenodd;clip-rule:evenodd;fill:#C22A75;}
	.st9{fill-rule:evenodd;clip-rule:evenodd;fill:#F1AE88;}
	.st10{fill-rule:evenodd;clip-rule:evenodd;fill:#CE2C1E;}
	.st11{fill-rule:evenodd;clip-rule:evenodd;fill:#AECE93;}
	.st12{fill-rule:evenodd;clip-rule:evenodd;fill:#176633;}
	.st13{fill-rule:evenodd;clip-rule:evenodd;fill:#39A338;}
	.st14{fill-rule:evenodd;clip-rule:evenodd;fill:#E54E23;}
	.st15{fill-rule:evenodd;clip-rule:evenodd;fill:#E5007E;}
	.st16{fill:none;stroke:#000000;stroke-miterlimit:10;}
	.st17{fill:#EB008B;}
</style>
<g>
	<g>
		<path class="st0" d="M282.5,30.5c-5.3,0-8.8,1.8-8.8,5.3V65c0,7.2-1.5,12.5-6.4,15.9c-3.8,2.6-8.6,3.9-14.5,3.9
			c-6.1,0-11.4-0.4-14.9-3.2c-4.3-3.4-5.9-9.9-5.9-17.3V36c0-3.6-2.5-5.3-7.4-5.3V28H248v2.7c-5,0-6.4,1.7-6.4,5l0.2,29.3
			c0,5,1,8.7,2.8,11.3c2.4,3.1,5,4.6,10.5,4.6c10.5,0,13.5-5.2,13.5-16V36.2c0-3.7-1.7-5.7-7-5.7V28h20.9V30.5z"/>
		<path class="st0" d="M317,71.7L315.7,84h-37.5v-2.2c3.9,0,6.6-2.2,6.6-6c0-13.8,0-27.5,0-41.3c-0.8-3.5-0.7-2.5-3.8-3.3v-3.1h35
			v12.2h-2.8c-0.6-3-1.2-5.2-2.4-6.6c-1.1-1.3-2.9-2.2-5.1-2l-8.8,0.6c-2.4,0.1-2.7,1.1-2.7,3.5V50h16.6c5.5,0,4.1,4.4,0,4.5
			l-16.4,0.6l-0.1,21.2c0,1.7-0.4,2.6,0.3,3.1c0.3,0.2,1,0.3,2.2,0.3h10.1c6-1.1,7.3-3.4,8.3-8C315.2,71.7,317,71.7,317,71.7z"/>
		<path class="st0" d="M361.8,66.7c0,5.8-3.7,11.3-8.2,13.9c-3.2,2-7.3,3.4-12.2,3.4h-1.5v-3.8c8.1-1.6,11.1-4.7,11.1-12.7
			c0-3.9-0.8-6.4-3.8-8.5c-2-1.4-4.3-2.3-7.3-2.6v-5.3l0.9-0.1c6.7-4.5,6.6-7.3,6.6-11.2c-0.4-4.4-1.5-7.5-7.4-8.3V28
			c12,0.1,18.1,1.7,18.1,10.6c0,6.5-3.4,9.4-9,12c3.4,0.5,7.5,3.4,10,5.7C361.5,59,361.8,63.2,361.8,66.7z M339.8,84h-23.1v-2.8
			c4.8,0,7.3-1.1,7.3-4.8V35.1c0-3.6-2.5-4.3-7.3-4.3V28h21c0.7,0,1.4,0,2.1,0v3.6c-1-0.1-2.2-0.3-3.6-0.3c-1.6,0-1.9,0.1-2.4,0.3
			c-1,0.4-1.5,1.3-1.5,2.7v17.2l7.4-0.4v5.3c-1.1-0.2-2.4-0.3-3.8-0.3h-3.6V77c0,1.7,0.9,2.7,2.7,3.1c0.8,0.2,1.7,0.7,4,0.3
			c0.2,0,0.4-0.1,0.6-0.1V84H339.8z"/>
		<path class="st0" d="M400.2,71.5l-2,12.8h-39.5v-3.1c4.2,0,7.4-1.1,7.4-4.8V35.1c0-3.6-2.8-4.4-7-4.4v-3h24.2v3
			c-4.2,0-7.3,0.8-7.3,4.5v41.6c0,2.2,0.3,3.3,6.1,3.3c5.5,0,9.5-0.7,11.8-2.1c2.4-1.5,2.4-2,4.1-6.6L400.2,71.5L400.2,71.5z"/>
		<path class="st0" d="M432.1,48.1c0,5.8-1.7,10.7-4.3,14.6c-2.7,3.9-9,6.4-13.2,6.5v-4.6c3.2,0,3.8-0.5,5.4-3.2
			c1.8-3.2,2.3-7.5,2.3-12.5c0-5.2,0.1-8.4-1.4-11.7c-1.6-3.8-2.6-5-5.7-5h-0.6v-4.6c4.4,0,9.9,0.7,13.2,3.8
			C431.8,35.2,432.1,42,432.1,48.1z M414.6,69.1c-0.1,0-0.2,0-0.3,0c-4.4,0-10.6,0-13.4-4c-2.7-3.8-4-8.7-4-14.5
			c0-6,2.5-12.7,5.2-16.6c2.7-3.8,7.6-6.6,12-6.6c0.1,0,0.3,0,0.5,0V32c-2.9,0-3.4,0.3-5,3.6c-1.5,3.2-2.7,7.5-2.7,13.1
			c0,5.3,0.4,8.7,2,12c1.7,3.6,2.7,3.7,5.6,3.7h0.1L414.6,69.1L414.6,69.1z"/>
		<path class="st0" d="M471.3,68.5c0.3,5.2-3.1,9-6.8,12c-1.5,1.2-8.3,4-13.8,4.5c-8.5,0.7-18.5-1.7-16.2-1.9l0.1-11.3h1.8
			c3.5,9.9,7.5,9,15.6,9c2.4,0,4.8-0.6,6.7-2.2c2.2-1.7,3.2-3.9,3.2-6.9c0-4.7-2.5-7.2-8.5-10.3l-8-4.3c-6.9-3.6-11-6.9-11-12.5
			c0-4.4-0.2-8.5,5.4-12.9c3-2.4,6-4.3,10.4-4.5c8.5-0.5,12.4-0.6,18.7,1.8L468,40.1h-2c-0.8-5.1-4.6-8.8-12.1-8.8
			c-2.4,0-4.9,0.8-6.5,2.2c-1.7,1.4-3.6,2.4-3.6,4.9c0,2.2,1,5.9,3,7.8c1.2,1.1,2.9,2.2,6.4,3.9l8.1,3.9
			C468.7,57.4,470.8,58.8,471.3,68.5z"/>
		<path class="st0" d="M252.2,152.4l-14.8-0.6c-3.6-0.1-3-28.5-6-47c-5.3,15.2-11.5,30.6-16.7,45.6c-1.8,0.9-3.4,1.1-5.3,0.1
			l-18-46.9l-1.7,40.6c-0.1,3.4,1.7,5.9,6.6,5.9v1.6L178,152l0.4-2.5c5,0,6.2-1.6,6.4-5.3l2.9-40.1c0.3-3.6-1.4-5.2-6.4-5.2l0.3-3.1
			l16.8-0.4l16.5,42.1l15.7-41l17.3-0.6l-0.1,3.4c-4,0.6-6.1,0.1-5.9,2.5l2.1,39.8c0.4,7.3,4,7.8,8.5,7.8L252.2,152.4z"/>
		<path class="st0" d="M285.3,89.3c0,0.6-1.7,1.6-3.8,2l-9.9,2.2l-4-0.3l8.6-4.8c1.9-1.1,4-1.1,5.6-0.8
			C282.3,87.7,285.3,89.1,285.3,89.3z"/>
		<path class="st0" d="M331,148.5c-6.7,3.9-14.7,5.5-19.6,5.5c-7.8,0-13.9-2.9-18.5-8.9c-4.1-5.3-6.2-11.8-6.2-19.7
			c0-8.5,2.1-13.6,6.7-19.2c4.5-5.5,10.1-9.4,16.7-10.6c6.2-1.2,10.1-1.8,18.7,1.7l-0.4,10.8h-1.7c-2.7-9.7-11.2-7.8-14.8-7.8
			c-5.2,0-8.7,3.9-11.6,8.9c-2.7,4.6-2.7,10.2-2.7,17.8c0,7.3,1.5,10.8,4.6,15.7c3.1,4.8,6.4,6.4,11.7,6.4c2.2,0,8.1-1.5,8.3-5.8
			l0.1-5.5c0.1-3.8,0.9-5.9-8-5.9V129H332L331,148.5z"/>
		<path class="st0" d="M359,151.5h-25v-2c5.5,0,7.4-1.5,7.4-5.2v-40c0-3.6-2-5.5-7.4-5.5v-2.9h25v2.9c-5.5,0-8.2,1.8-8.2,5.5v40
			c0,3.8,2.7,5.2,8.2,5.2V151.5z"/>
		<path class="st0" d="M400.9,146.9c-7.3,4.6-12.6,6.1-20.3,6.1c-3.6,0-11.7-2.1-16.1-7.8c-4.3-5.3-4.6-12.9-4.6-21.1
			c0-8,1.5-13.9,6.1-19.6c4.6-5.6,7.6-7.1,14.1-8.5c6.4-1.4,14.8-1,20.4,0c2.5,3.1-0.7,7.7-0.1,12c-0.6,1.2-1.2,1.2-1.8,0
			c-1.1-5.8-4.6-8.3-13.6-8.3c-5.5,0-8,1.3-11,6.2c-2.8,4.6-4.2,10.8-4.2,18.3c0,7.3,1.8,13.3,4.9,18c3.1,4.6,7.4,5.9,11.2,6
			c4.2,0.1,9-0.8,14-4C402,143.6,402.3,144.8,400.9,146.9z"/>
		<path class="st0" d="M431.3,76c-2.2,3.7-5.9,8-8.7,8c-1.3,0-2.5-0.3-3.6-0.8c-1.8-0.8-3.6-1.5-5.3-2.3c-0.8-0.3-1.7-0.5-2.7-0.5
			c-1.1,0-2.1,0.3-2.9,1c-0.7,0.7-2.3,1.1-3.4,2.9c-0.8-0.7-1.5-1.4-2.3-2.1c2.3-3.9,5.7-7.1,8.3-7.9c1.1-0.3,3.1-0.4,4.2,0.1
			c2,0.8,5,1.7,6.9,2.5c0.8,0.3,1.7,0.4,2.5,0.4c2,0,2.3-0.9,4.8-3.3C429.7,74.6,430.7,75.3,431.3,76z"/>
		<path class="st0" d="M226.9,42.5c-0.9,5.3-3.6,9.6-8.5,12.5c-4.1,2.4-7.3,3.1-12.7,2.8l-2.8-0.1v-3.4c1-0.6,2.7-0.4,3.2-0.5
			c8.9-1.5,10.4-3.8,10.4-12.2s-4.2-9.7-14.6-9.7c-1.3,0-2.2,0.1-2.5,0.4c-0.6,0.4-0.8,1.5-0.8,3.1c0,14.8-0.2,27.8-0.2,42.5
			c0,3.5,4,3.2,9,3.2V84h-25.1v-2.9c5,0,7.5,0.1,7.5-3.6L189.7,35c0-1.8-0.1-2.2-1.1-3c-1.1-1-3.1-1.4-6-1.4l-0.3-2.7h22.6
			c6.8,0,13.4,0.4,17.1,2.8C226.1,33.6,226.9,37.2,226.9,42.5z"/>
		<path class="st0" d="M437.4,116.4c0,5.8-1.7,10.7-4.3,14.6c-2.7,3.9-9,6.4-13.2,6.5v-4.6c3.2,0,3.8-0.5,5.4-3.2
			c1.8-3.2,2.3-7.5,2.3-12.5c0-5.2,0.1-8.4-1.4-11.7c-1.6-3.8-2.6-5-5.7-5h-0.6v-4.6c4.4,0,9.9,0.7,13.2,3.8
			C437.1,103.6,437.4,110.4,437.4,116.4z M419.8,137.5c-0.1,0-0.2,0-0.3,0c-4.4,0-10.6,0-13.4-4c-2.7-3.8-4-8.7-4-14.5
			c0-6,2.5-12.7,5.3-16.6c2.7-3.8,7.6-6.6,11.9-6.6c0.2,0,0.3,0,0.5,0v4.6c-2.9,0-3.4,0.3-5,3.6c-1.5,3.2-2.7,7.5-2.7,13.1
			c0,5.3,0.4,8.7,2,12c1.7,3.6,2.7,3.7,5.6,3.7h0.1V137.5z"/>
		<path class="st0" d="M434.8,144.7c-2.2,3.7-5.9,8-8.6,8c-1.3,0-2.5-0.3-3.6-0.8c-1.8-0.8-3.6-1.5-5.3-2.3
			c-0.8-0.3-1.7-0.5-2.7-0.5c-1.1,0-2,0.3-2.8,1s-2.4,1.1-3.4,2.9c-0.8-0.7-1.5-1.4-2.3-2.1c2.3-3.9,5.7-7.1,8.2-7.8
			c1.1-0.3,3.2-0.4,4.2,0.1c2,0.8,5,1.7,6.9,2.5c0.8,0.3,1.7,0.4,2.5,0.4c2,0,2.3-0.9,4.8-3.2C433.3,143.4,434.2,144,434.8,144.7z"
			/>
		<path class="st0" d="M285.3,144.7c-2.2,3.7-5.9,8-8.6,8c-1.3,0-2.5-0.3-3.6-0.8c-1.8-0.8-3.6-1.5-5.3-2.3
			c-0.8-0.3-1.7-0.5-2.7-0.5c-1.1,0-2,0.3-2.8,1s-2.4,1.1-3.4,2.9c-0.8-0.7-1.5-1.4-2.3-2.1c2.3-3.9,5.7-7.1,8.2-7.8
			c1.1-0.3,3.2-0.4,4.2,0.1c2,0.8,5,1.7,6.9,2.5c0.8,0.3,1.7,0.4,2.5,0.4c2,0,2.3-0.9,4.8-3.2C283.8,143.4,284.7,144,285.3,144.7z"
			/>
		<path class="st0" d="M476.4,137.4c0.3,5.3-3.1,9-6.8,12c-1.5,1.1-8.3,3.9-13.8,4.4c-8.5,0.7-18.5-1.6-16.2-1.9l0.1-11.3h1.8
			c3.6,9.9,7.6,9,15.6,9c2.5,0,4.8-0.6,6.7-2.2c2.2-1.7,3.2-3.9,3.2-6.7c0-4.7-2.5-7.2-8.4-10.3l-8.1-4.3c-6.9-3.6-11-6.9-11-12.5
			c0-4.3-0.2-8.4,5.3-12.9c3.1-2.4,6-4.3,10.5-4.6c8.5-0.4,12.4-0.5,18.7,1.8l-0.9,11.1h-2c-0.8-5.2-4.6-8.8-12-8.8
			c-2.4,0-4.9,0.7-6.6,2.2c-1.6,1.4-3.6,2.4-3.6,4.9c0,2.2,1,5.9,3.1,7.8c1.2,1.1,2.9,2.2,6.4,3.9l8.1,3.9
			C473.8,126.3,475.9,127.7,476.4,137.4z"/>
		<path class="st0" d="M271.4,127c-1.3,2-3.8,5.2-7.1,7.5v-5.7c1.3-0.7,2.5-1.9,3.8-3.8c2.9-3.2,3.9-16.2,3.9-20.7
			c0.4-2.9-2.4-3.4-6.4-3.2c-0.4,0.1-1,0.3-1.4,0.4v-5.3c0.5-0.1,1.1-0.2,1.6-0.3c8-0.4,13.4,0.1,18.7,2.2c-1,2.9-3.1,2.7-3.8,5.6
			c-2.5,10.6-1.3,23.1,1.9,32.2l-7.7,1.3C270.5,136.8,272.5,130.1,271.4,127z M264.3,134.5c-2,1.5-4.3,2.7-6.8,3.1
			c-7.9,1.3-8.7-7.1-8.8-12.9v-0.5c0-1.1,0.1-2.2,0.1-3c0-5.8,1.7-13.1,5-17.5c2.8-3.8,6.8-6.7,10.6-7.6v5.3c-2.8,0.9-4.8,2.5-6,5.6
			c-1.8,8.6-3.1,13.1,0.7,21c1.5,1.5,3.3,1.8,5.3,0.7v5.8H264.3z"/>
	</g>
	<g>
		<path class="st1" d="M85.6,82.1c-7-5.9-16-9.4-25.8-9.4c-22.2,0-40.2,18-40.2,40.2c0,16.4,9.8,30.4,23.8,36.7
			c-3.8-6.4-6-13.6-6-21.3c-2.2-4.5-3.4-9.6-3.4-14.9c0-19.5,15.7-35.2,35.2-35.2c5.7,0,11.1,1.4,15.8,3.8c-0.3,0.1-0.6,0.2-1,0.3
			C84.5,82.2,85,82.1,85.6,82.1z"/>
		<g>
			<path class="st2" d="M84.9,81.9c-0.3,0.1-0.6,0.2-1,0.3c-26,2.2-46.4,21.6-46.8,45.3v0.7l0.1,0.1c4.1,8.7,11.7,15.5,20.9,18.5
				c-3.5-6.4-5.4-13.8-5.4-21.6C52.7,104.8,66.3,87.5,84.9,81.9L84.9,81.9L84.9,81.9z M37.2,127.4c0,0.1,0,0.3,0,0.5
				c0,0.1,0,0.1,0,0.2V127.4L37.2,127.4z"/>
		</g>
		<path class="st3" d="M84.9,81.9c-4.8-2.4-10.1-3.8-15.8-3.8c-19.5,0-35.2,15.7-35.2,35.2c0,5.3,1.2,10.4,3.4,14.9
			c0-0.1-0.1-0.2-0.1-0.3c0-23.9,20.6-43.6,46.8-45.7C84.3,82.1,84.6,82,84.9,81.9z"/>
		<path class="st4" d="M79.9,85.4c-7.5,5-13.5,12.7-16.3,22.1c-6.3,21.3,5.8,43.7,27,50c15.7,4.6,31.9-0.7,41.9-12.4
			c-7.2,1.9-14.7,1.9-22.1-0.2c-5,0.7-10.2,0.5-15.3-1.1c-18.5-5.5-29.2-25.1-23.6-43.7C73.2,94.7,76,90,79.6,86c0,0.3,0,0.7,0,1
			C79.7,86.5,79.9,86,79.9,85.4z"/>
		<g>
			<path class="st5" d="M79.6,86c0,0.3,0,0.7,0,1c-0.7,3.3-1.1,6.7-1.2,10v3.4c0.6,20.7,12.8,38.9,31.7,44.5c0.1,0,0.2,0,0.3,0.1
				c9.5-1.5,18.1-6.8,23.7-14.9c-7.1,1.6-14.7,1.4-22.2-0.9C92.4,123.4,79.7,105.5,79.6,86L79.6,86L79.6,86z M110.5,145
				c-0.5,0.1-1.2,0.1-1.7,0.2C109.3,145.2,109.9,145.1,110.5,145L110.5,145z"/>
		</g>
		<path class="st6" d="M79.6,86c-3.6,3.9-6.4,8.7-8.1,14.2c-5.6,18.6,5.1,38.2,23.6,43.7c5.2,1.6,10.4,1.8,15.3,1.1
			c-0.1-0.1-0.2-0.1-0.3-0.1C87.2,138,74.3,112.8,79.6,87C79.6,86.7,79.6,86.4,79.6,86z"/>
		<path class="st7" d="M81.4,92c2.4,8.8,7.9,16.8,16,22.5c18.3,12.6,43.4,7.9,55.9-10.5c9.3-13.4,9.2-30.5,1.2-43.6
			c-0.5,7.4-2.7,14.6-7.1,21c-0.8,5-2.6,9.8-5.7,14.3c-11,16-32.9,20.1-48.9,9.1c-4.7-3.3-8.4-7.5-10.9-12.2c0.3,0.1,0.6,0.2,1,0.3
			C82.4,92.6,81.9,92.3,81.4,92z"/>
		<path class="st8" d="M81.9,92.6c2.5,4.7,6.2,8.9,10.9,12.2c16,11,37.9,6.9,48.9-9.1c3.1-4.4,4.9-9.3,5.7-14.3
			c-0.1,0.1-0.1,0.2-0.2,0.3c-13.5,19.8-41.5,24.3-64.4,11.2C82.5,92.8,82.2,92.7,81.9,92.6z"/>
		<path class="st9" d="M88,92.1c9.2,0.5,18.5-2.2,26.3-8.1c17.7-13.4,21.2-38.6,7.7-56.3c-9.8-13-26.1-18.3-41.1-14.9
			c6.9,2.7,13,7.2,17.7,13.2c4.4,2.4,8.4,5.7,11.7,10c11.7,15.5,8.7,37.5-6.8,49.3c-4.5,3.5-9.6,5.6-14.9,6.6
			c0.2-0.3,0.4-0.5,0.5-0.8C88.8,91.4,88.4,91.8,88,92.1z"/>
		<path class="st10" d="M88.6,91.9c5.3-0.9,10.4-3.1,14.9-6.6C119,73.6,122,51.5,110.3,36c-3.3-4.3-7.3-7.6-11.7-10
			c0.1,0.1,0.1,0.2,0.2,0.3c14.5,19,9.9,47.1-9.7,64.7C89,91.3,88.8,91.6,88.6,91.9z"/>
		<path class="st11" d="M89.9,85.3c3.1-8.6,3.4-18.3,0-27.6c-7.5-20.8-30.5-31.6-51.4-24C23.1,39.3,13.2,53.3,12,68.5
			c4.7-5.8,10.7-10.2,17.9-13c3.6-3.6,7.9-6.4,13-8.3c18.3-6.6,38.4,2.8,45,21c2,5.4,2.5,10.9,1.9,16.3c-0.2-0.3-0.4-0.5-0.6-0.8
			C89.4,84.3,89.7,84.8,89.9,85.3z"/>
		<path class="st12" d="M89.8,84.6c0.6-5.4,0.1-10.9-1.9-16.3c-6.6-18.3-26.7-27.6-45-21c-5,1.8-9.4,4.7-13,8.3
			c0.1-0.1,0.3-0.1,0.3-0.1c22.5-8.1,47.9,4.4,58.9,28.4C89.4,84.1,89.6,84.3,89.8,84.6z"/>
		<path class="st13" d="M88.8,83.1c0.3,0.4,0.7,0.9,1,1.3c-0.2-0.3-0.4-0.5-0.6-0.8c-10.8-23.8-36-36.4-58.4-28.7
			c-0.1,0-0.1,0.1-0.2,0.1l0.1-0.1c0,0-0.1,0-0.1,0.1c-0.1,0-0.1,0-0.2,0.1c-0.1,0-0.1,0-0.2,0.1c0,0,0,0.1-0.1,0.1
			c-6.8,6.8-10.6,16.2-10.3,26l0,0v0.4c3.1-3.5,6.7-6.4,10.9-8.9c2.3-1.4,4.8-2.6,7.5-3.6c19.2-7,40-0.1,51.7,15.5
			c-0.2-0.3-0.4-0.5-0.6-0.8C89.1,83.5,88.9,83.3,88.8,83.1z"/>
		<path class="st14" d="M89,91.3c0.1-0.1,0.2-0.2,0.2-0.3c0,0,0,0-0.1,0.1C89.1,91.1,89.1,91.2,89,91.3z M101.8,30.7
			c-0.1-0.3-0.3-0.5-0.5-0.8c-0.1-0.1-0.2-0.2-0.2-0.4c-0.6-1-1.2-1.9-1.9-2.9c-0.1-0.1-0.2-0.2-0.3-0.4l-0.1-0.1
			c0.2,0.1,0.4,0.2,0.6,0.3c0.2,0.1,0.5,0.3,0.7,0.4c-0.3-0.1-0.5-0.3-0.7-0.5c-0.3-0.1-0.5-0.3-0.7-0.4l0,0l0,0
			c-8.5-4.5-18.6-5.3-27.8-2.2c0.1,0,0.1,0.1,0.2,0.1H71c6.2,2.8,11.8,7.1,16.4,12.7c0.3,0.4,0.6,0.7,0.9,1.1
			c12.3,16.3,11.9,38.3,0.4,53.9c0.2-0.3,0.4-0.5,0.6-0.8c0.1-0.1,0.3-0.2,0.4-0.4c-0.1,0.1-0.2,0.3-0.3,0.4c4-3.6,7.4-7.7,10.2-12
			c5-8,7.7-17,7.9-25.8v-2.2C107.2,43.9,105.4,36.9,101.8,30.7z"/>
		<path class="st15" d="M82.7,92.8c-0.3-0.1-0.5-0.1-0.8-0.2C82.1,92.7,82.4,92.7,82.7,92.8z M140.8,54.1c0,0.1,0,0.1,0,0.2
			c0,0,0-0.1-0.1-0.1c-0.7,7.2-3.3,14.4-7.7,20.8c-4.2,6.2-9.7,10.9-15.8,14.3c-0.1,0-0.2,0.1-0.2,0.1c-0.3,0.2-0.6,0.3-0.9,0.4
			s-0.5,0.3-0.8,0.4c-0.1,0.1-0.3,0.1-0.4,0.2C104.7,95.1,93,96,82.1,92.5c0.3,0.1,0.5,0.2,0.8,0.3h-0.1c0.1,0,0.1,0,0.2,0.1l0,0
			h0.1l0,0H83c18.5,10.6,40.3,9.6,55.2-1.6l0,0c0.3-0.2,0.5-0.4,0.8-0.6c3.1-2.4,5.9-5.3,8.3-8.7c0.1-0.1,0.2-0.2,0.3-0.4l0,0
			c0,0.2-0.1,0.4-0.1,0.7c-0.1,0.3-0.1,0.6-0.1,0.9c0-0.3,0.1-0.5,0.1-0.8c0.1-0.2,0.1-0.5,0.1-0.7c0,0,0-0.1,0.1-0.1
			c0,0,0-0.1,0-0.2C149.1,71.8,146.7,61.9,140.8,54.1z"/>
	</g>
	<line class="st16" x1="507.7" y1="30.7" x2="507.7" y2="143"/>
	<g>
		<g>
			<path class="st17" d="M587.6,104.1V69.6l-13.3,34.6h-10.4l-12.2-34.6v34.6h-11.4V55.7h18.8l10.6,31l10.6-31h18.8v48.4H587.6z"/>
			<path class="st17" d="M614.8,85c0.6,5.3,4.4,8.9,10.4,8.9c3.8,0,7.8-1.7,10.6-4.9l8.4,7.2c-5.1,5.9-11.6,8.5-18.8,8.5
				c-14.1,0-22.6-9.3-22.6-25.3c0-14.2,8.9-24.3,21.3-24.3c12.5,0,20.9,8.5,20.9,22V85H614.8L614.8,85z M623.9,66.2
				c-4.6,0-8.5,3.6-9.1,8h17.9C632.1,70.3,629.6,66.2,623.9,66.2z M626.8,52.3l-9.9-4.6l6.1-13.1l9.9,4.6L626.8,52.3z"/>
			<path class="st17" d="M675.9,104.1l-9.3-14.4l-9.3,14.4h-13.7l16.5-24.7l-15.8-23.7H658l8.5,14.1l8.5-14.1h13.7l-15.8,23.7
				l16.7,24.7C689.6,104.1,675.9,104.1,675.9,104.1z"/>
			<path class="st17" d="M692.7,104.1V55.7h11.4v48.4C704.1,104.1,692.7,104.1,692.7,104.1z"/>
			<path class="st17" d="M740.5,72c-3-3.6-5.9-5.3-9.5-5.3c-7,0-10.6,4.6-10.6,13.3S724,93.3,731,93.3c4.2,0,7.4-2.1,9.5-5.3
				l8.5,7.6c-4.4,5.7-10.6,9.3-18,9.3c-14.2,0-22.4-8.9-22.4-24.7c0-15.2,8.5-24.7,22.4-24.7c7.8,0,13.3,3.2,18,9.1L740.5,72z"/>
			<path class="st17" d="M771.5,104.7c-13.7,0-22.2-9.5-22.2-24.7c0-14.6,9.1-24.7,22.2-24.7s22,10.1,22,24.7
				C793.7,95.2,785.1,104.7,771.5,104.7z M771.5,65.6c-7.2,0-10.4,7.2-10.4,14.2c0,6.6,2.7,14.6,10.4,14.6s10.4-7.8,10.4-14.6
				C781.9,72.8,778.7,65.6,771.5,65.6z"/>
		</g>
		<g>
			<g>
				<path d="M544.9,125.6c0-9.5,6.8-18.8,14.1-18.8c3,0,4.6,1.9,4.7,3l1.1-9.9h9.1l-4,33.4h-9.5l0.8-5.9H561
					c-1.9,3.6-4.6,6.5-8.9,6.5C547.4,134.1,544.9,131.3,544.9,125.6z M562.8,115.9c0-2.5-0.6-3.8-2.1-3.8c-3,0-6.3,6.6-6.3,12.3
					c0,2.5,0.6,3.8,2.1,3.8C559.5,128.3,562.8,121.6,562.8,115.9z"/>
				<path d="M593,125l4.9,3c-2.5,4.2-6.6,6.1-11.8,6.1c-8.4,0-11.6-4.7-11.6-10.8c0-10.1,6.8-16.5,15.4-16.5c5.1,0,9.9,2.1,9.9,6.8
					c0,7.6-10.4,8.9-16,9.3v0.6c0,3,1.1,4.9,3.8,4.9C589.9,128.4,591.6,126.7,593,125z M584,119.3c4.7-0.4,7-3,7-5.7
					c0-1.3-0.6-2.1-1.7-2.1C587.1,111.7,584.8,114.8,584,119.3z"/>
				<path d="M599.4,128.1l5.1-3c1.7,2.3,4,3.2,5.7,3.2c1.1,0,2.1-0.6,2.1-1.5c0-1.1-1.5-2.1-3.4-3.2c-2.8-1.7-6.6-4-6.6-8.4
					s4-8.5,10.6-8.5c3.8,0,7.8,1.3,10.3,4.7l-5.1,3c-1.5-1.7-3-2.1-4.7-2.1c-1.3,0-2.5,0.6-2.5,1.5s1.3,1.7,3,2.7
					c3,1.9,7.2,4.4,7.2,9.5c0,4-3,8-10.1,8C605.1,134,601.3,131.3,599.4,128.1z"/>
				<path d="M623.7,122.9c0-9.5,5.9-16.3,14.8-16.3c4.7,0,8.2,2.1,9.9,5.5l-5.3,3c-0.8-1.7-1.7-2.8-3.6-2.8c-3.6,0-5.9,4.4-5.9,11
					c0,3.4,0.9,4.9,3,4.9c2.5,0,4-1.9,5.1-3.6l5.1,3c-2.3,3.8-5.9,6.3-11,6.3C626.4,134.1,623.7,128.1,623.7,122.9z"/>
				<path d="M648.4,122.6c0-8.5,5.3-16,15.6-16c7,0,11.8,3.4,11.8,11.4c0,8.5-5.3,16-15.8,16C653.2,134.1,648.4,130.7,648.4,122.6z
					 M666.1,117.1c0-3.6-0.9-5.3-2.7-5.3c-3,0-5.3,5.3-5.3,12.2c0,3.6,0.9,5.3,2.7,5.3C663.8,129.2,666.1,123.7,666.1,117.1z"/>
				<path d="M680.9,107.6h9.5l-2.7,13.9h0.2c3.6-12.3,8-14.6,11.4-14.6c5.1,0,7.2,3.8,6.5,9.9l-2.1,16.7h-9.5l1.7-15
					c0.2-2.1,0.2-4.2-1.5-4.2c-3.4,0-5.7,9.3-7.2,19h-9.5L680.9,107.6z"/>
				<path d="M708.2,122.6c0-8.5,5.3-16,15.6-16c7,0,11.8,3.4,11.8,11.4c0,8.5-5.3,16-15.8,16C713,134.1,708.2,130.7,708.2,122.6z
					 M725.9,117.1c0-3.6-0.9-5.3-2.7-5.3c-3,0-5.3,5.3-5.3,12.2c0,3.6,0.9,5.3,2.7,5.3C723.6,129.2,725.9,123.7,725.9,117.1z"/>
				<path d="M737.9,122.9c0-9.5,5.9-16.3,14.8-16.3c4.7,0,8.2,2.1,9.9,5.5l-5.3,3c-0.8-1.7-1.7-2.8-3.6-2.8c-3.6,0-5.9,4.4-5.9,11
					c0,3.4,0.9,4.9,3,4.9c2.5,0,4-1.9,5.1-3.6l5.1,3c-2.3,3.8-5.9,6.3-11,6.3C740.5,134.1,737.9,128.1,737.9,122.9z"/>
				<path d="M772,133.4h-9.5l3-26h9.5L772,133.4z M765.8,100c0-3.2,2.7-5.3,5.7-5.3c2.7,0,5.1,1.7,5.1,4.7c0,3.2-2.7,5.3-5.7,5.3
					C768.2,104.5,765.8,102.8,765.8,100z"/>
				<path d="M776.2,125.6c0-9.5,6.8-18.8,14.1-18.8c3,0,4.6,1.9,4.7,3l1.1-9.9h9.1l-4,33.6h-9.5l0.8-5.9h-0.2
					c-1.9,3.6-4.6,6.5-8.9,6.5C778.9,134.1,776.2,131.3,776.2,125.6z M794.3,115.9c0-2.5-0.6-3.8-2.1-3.8c-3,0-6.3,6.6-6.3,12.3
					c0,2.5,0.6,3.8,2.1,3.8C791,128.3,794.3,121.6,794.3,115.9z"/>
				<path d="M805.7,122.6c0-8.5,5.3-16,15.6-16c7,0,11.8,3.4,11.8,11.4c0,8.5-5.3,16-15.8,16C810.4,134.1,805.7,130.7,805.7,122.6z
					 M823.5,117.1c0-3.6-0.9-5.3-2.7-5.3c-3,0-5.3,5.3-5.3,12.2c0,3.6,0.9,5.3,2.7,5.3C821,129.2,823.5,123.7,823.5,117.1z"/>
			</g>
			<g>
				<path d="M811.9,102.4c0,1.3-1.1,2.5-2.5,2.5s-2.5-1.1-2.5-2.5s1.1-2.5,2.5-2.5S811.9,100.9,811.9,102.4z M807.4,102.4
					c0,1.1,0.9,2.1,2.1,2.1s2.1-0.9,2.1-2.1s-0.9-2.1-2.1-2.1S807.4,101.3,807.4,102.4z M810.4,101.9c0,0.4-0.4,0.8-0.6,0.8l0.8,1.1
					H810l-0.6-1.1h-0.6v1.1h-0.4V101h1.1C810.2,100.9,810.4,101.3,810.4,101.9z M808.9,101.3v0.9h0.6c0.4,0,0.6-0.2,0.6-0.6
					s-0.2-0.4-0.6-0.4L808.9,101.3L808.9,101.3z"/>
			</g>
		</g>
	</g>
</g>
</svg>
