<?xml version="1.0" standalone="no"?>
<!DOCTYPE svg PUBLIC "-//W3C//DTD SVG 20010904//EN"
 "http://www.w3.org/TR/2001/REC-SVG-20010904/DTD/svg10.dtd">
<svg version="1.0" xmlns="http://www.w3.org/2000/svg"
 width="157.000000pt" height="171.000000pt" viewBox="0 0 157.000000 171.000000"
 preserveAspectRatio="xMidYMid meet">

<g transform="translate(0.000000,171.000000) scale(0.100000,-0.100000)"
fill="#000000" stroke="none">
<path d="M231 1542 c-58 -29 -69 -55 -91 -202 -33 -226 -25 -314 39 -402 17
-23 47 -54 67 -68 78 -56 73 -19 54 -350 -19 -335 -17 -354 40 -382 46 -23
214 -25 266 -3 61 25 64 45 48 325 -7 135 -14 272 -14 306 l0 61 49 31 c52 34
112 114 131 176 16 51 8 230 -15 359 -21 112 -39 138 -105 158 -36 11 -49 11
-86 -3 -39 -14 -49 -14 -86 -1 -43 15 -102 11 -125 -9 -9 -7 -25 -5 -53 6 -52
20 -77 20 -119 -2z m88 -85 c6 -8 12 -81 13 -193 l3 -179 33 -3 c44 -4 48 10
57 206 7 157 8 164 30 174 16 7 29 7 43 -1 18 -10 21 -24 27 -158 4 -82 10
-164 14 -183 6 -32 10 -35 41 -35 l35 0 3 179 c1 112 7 185 13 193 13 15 38
17 57 4 17 -10 52 -231 52 -326 -1 -113 -50 -190 -152 -235 l-46 -20 5 -78
c13 -210 29 -568 25 -579 -5 -16 -189 -18 -194 -3 -3 10 14 374 26 567 l6 92
-47 21 c-107 47 -152 121 -153 245 0 96 34 305 52 317 19 12 44 10 57 -5z"/>
<path d="M1278 1546 c-102 -28 -231 -139 -290 -252 -103 -196 -79 -377 69
-535 l62 -65 -20 -239 c-19 -221 -19 -242 -5 -273 10 -21 29 -39 51 -48 46
-19 204 -19 250 0 67 28 65 6 65 706 0 700 2 678 -65 706 -41 17 -55 17 -117
0z m87 -706 l0 -625 -89 -3 c-49 -2 -93 1 -98 6 -5 5 2 122 14 265 l22 256
-65 63 c-36 35 -77 83 -91 108 -80 139 -47 310 86 445 62 63 107 92 161 106
65 16 60 65 60 -621z"/>
</g>
</svg>
